Motion_kv08_l
version=1
nRows=9
nColumns=43
inDegrees=yes
endheader
time	pelvis_tilt	pelvis_list	pelvis_rotation	pelvis_tx	pelvis_ty	pelvis_tz	hip_flexion_r	hip_adduction_r	hip_rotation_r	knee_angle_r	ankle_angle_r	subtalar_angle_r	mtp_angle_r	hip_flexion_l	hip_adduction_l	hip_rotation_l	knee_angle_l	ankle_angle_l	subtalar_angle_l	mtp_angle_l	lumbar_extension	lumbar_bending	lumbar_rotation	neck_flexion	neck_lateral_bending	neck_rotation	arm_flex_r	arm_add_r	arm_rot_r	elbow_flex_r	pro_sup_r	wrist_flex_r	wrist_dev_r	hand_finger_flex_r	arm_flex_l	arm_add_l	arm_rot_l	elbow_flex_l	pro_sup_l	wrist_flex_l	wrist_dev_l	hand_finger_flex_l
      1.17750000	      3.60122076	      9.10650557	     83.99042487	     -0.00673520	      0.69134106	      0.46088900	     59.41991088	      2.71500410	      0.72600105	   -100.33670509	     13.56706393	     -6.73312034	     14.06389428	     59.79879332	     -8.12413735	      7.95416610	   -100.72071699	     11.58541310	     15.29588662	     29.26836218	    -51.13244072	      4.15098508	      7.27537024	     15.46211744	     -4.38324570	     -3.18750220	     14.53948095	    -21.72599936	     -4.67698641	     60.62426086	    154.28232547	      0.78330722	    -10.14854479	     -4.85602019	     11.63286697	    -18.56394066	      1.58542771	     72.84108982	    126.13636825	    -42.63222359	    -13.90779298	    -20.26455929
      1.18000000	      3.51528337	      8.62165940	     84.08941162	     -0.00663763	      0.68714272	      0.46072640	     60.30478248	      2.70192960	      0.72813802	   -100.91211910	     14.00773576	     -6.86452906	     13.88910005	     60.78241476	     -8.14386057	      8.00853101	   -101.28923722	     11.72509486	     15.75382288	     29.45332597	    -51.01946241	      4.06048467	      7.31485665	     15.73767293	     -4.03400530	     -3.31028396	     16.03254037	    -21.80062521	     -4.45877080	     60.98699470	    154.59667603	      1.22119305	     -9.87876900	     -5.02740876	     13.47621282	    -19.04193861	      2.79025155	     72.53431366	    126.60437831	    -42.96387486	    -13.87577741	    -20.67236721
      1.18250000	      3.47987327	      8.18660631	     84.11491459	     -0.00645880	      0.68353966	      0.46074884	     61.05929981	      2.75071079	      0.70616020	   -101.31763983	     14.34681261	     -6.91873708	     13.45942360	     61.62267218	     -8.21424153	      8.07351397	   -101.74420313	     11.92203952	     16.00238889	     29.69147722	    -51.03835747	      3.98238424	      7.43350761	     16.21954047	     -3.98428401	     -3.48194875	     17.60826816	    -21.70213851	     -4.55997990	     61.28024530	    154.87808408	      1.74810261	     -9.71264385	     -5.35433337	     15.36096895	    -19.37325770	      3.88043094	     72.24320993	    127.15501686	    -43.28552154	    -13.55577756	    -21.11831407
      1.18500000	      3.47836324	      8.01017329	     84.16545367	     -0.00630692	      0.68072911	      0.46076782	     61.46117775	      2.79327586	      0.66549787	   -101.67766740	     14.67486186	     -7.00066737	     13.42718396	     62.11574201	     -8.29494648	      8.07587863	   -102.13041397	     12.13739347	     16.02162940	     29.74459675	    -51.37447616	      3.93301250	      7.40231467	     16.84081733	     -3.92405216	     -3.48727517	     19.36723873	    -21.59398625	     -4.40451346	     61.43101613	    154.95245316	      1.88567716	     -9.73147731	     -5.36579167	     16.99903072	    -19.75491811	      4.50635735	     72.26869409	    127.52228232	    -42.92464268	    -13.74866549	    -21.02554445
      1.18750000	      3.38072849	      7.73193938	     84.20662893	     -0.00609334	      0.67744929	      0.46071581	     62.03693494	      2.80373896	      0.68664798	   -102.11161714	     15.15365928	     -7.13117106	     13.18094067	     62.73194770	     -8.33695026	      8.04421001	   -102.56226971	     12.34952139	     16.26360757	     29.84122622	    -51.50799317	      3.76996288	      7.36849262	     17.21287432	     -3.60110556	     -3.52891767	     21.00171674	    -21.70923397	     -3.98743459	     61.75039321	    155.10902106	      2.35289058	     -9.74523092	     -5.33118088	     18.74438012	    -20.17401851	      5.38936093	     72.13471225	    128.16431758	    -42.90925494	    -13.72033669	    -21.08863970
      1.19000000	      3.34982135	      7.47798776	     84.23558781	     -0.00595625	      0.67483034	      0.46080516	     62.47136711	      2.83032755	      0.66931505	   -102.39579846	     15.47377794	     -7.19659228	     13.09920613	     63.25843178	     -8.38921483	      8.02450907	   -102.87561564	     12.57681459	     16.30539906	     29.88778130	    -51.77127833	      3.69456387	      7.35971263	     17.84111247	     -3.60947734	     -3.54161925	     22.76318423	    -21.58627136	     -3.82120672	     61.89062300	    155.14456733	      2.52960943	     -9.73382539	     -5.31116384	     20.40566837	    -20.49045988	      5.99774022	     72.12947264	    128.57364981	    -42.66769559	    -13.81526882	    -21.00979323
      1.19250000	      3.20688920	      7.16625327	     84.25229303	     -0.00579277	      0.67156458	      0.46078111	     63.07983485	      2.82687994	      0.74092389	   -102.82709564	     15.95628811	     -7.30651509	     12.77876447	     63.89811333	     -8.40386835	      7.93305033	   -103.26902757	     12.78486991	     16.48498247	     29.94678823	    -51.84364632	      3.50818546	      7.28468922	     18.20900522	     -3.35005917	     -3.58358680	     24.39016121	    -21.72656306	     -3.29892066	     62.26439576	    155.13055064	      3.01811294	     -9.76876514	     -5.21518287	     22.11826174	    -20.91084888	      6.84827393	     71.98867125	    129.31472668	    -42.79107872	    -13.62468161	    -20.99676473
      1.19500000	      3.04311209	      6.81813562	     84.27557855	     -0.00553958	      0.66859133	      0.46086748	     63.69696157	      2.81419111	      0.82109445	   -103.16305540	     16.41804970	     -7.36695604	     12.29526598	     64.53340926	     -8.41176822	      7.83432595	   -103.61941918	     12.98696712	     16.55666492	     29.98500112	    -51.92241942	      3.31390333	      7.20923919	     18.70020480	     -3.23627392	     -3.62752749	     26.04515953	    -21.79030874	     -2.87764356	     62.56377773	    154.96418697	      3.40438836	     -9.75731885	     -5.20896758	     23.82135480	    -21.31129177	      7.67613553	     71.87953131	    130.18710236	    -42.97207493	    -13.25056048	    -20.86262690
      1.19750000	      2.86249411	      6.42403156	     84.27723116	     -0.00551176	      0.66560023	      0.46091887	     64.33387849	      2.79343872	      0.95467319	   -103.50860851	     16.93274374	     -7.28154736	     10.80255188	     65.20600994	     -8.38339903	      7.64685994	   -103.92148680	     13.16661739	     16.51475219	     29.96747854	    -51.94302050	      3.12754624	      7.12837946	     19.21755897	     -3.21873244	     -3.70705595	     27.69075056	    -21.73520629	     -2.54502047	     62.78657695	    154.32950979	      3.63591304	     -9.53524050	     -5.58946627	     25.53221013	    -21.60389356	      8.45610050	     71.81314966	    131.80894744	    -43.62258684	    -12.00079375	    -20.15366684
